Coordinates
version=1
nRows=5
nColumns=40
inDegrees=yes

Units are S.I. units (second, meters, Newtons, ...)
If the header above contains a line with 'inDegrees', this indicates whether rotational values are in degrees (yes) or radians (no).

endheader
time	pelvis_tilt	pelvis_list	pelvis_rotation	pelvis_tx	pelvis_ty	pelvis_tz	hip_flexion_r	hip_adduction_r	hip_rotation_r	knee_angle_r	knee_angle_r_beta	ankle_angle_r	subtalar_angle_r	mtp_angle_r	hip_flexion_l	hip_adduction_l	hip_rotation_l	knee_angle_l	knee_angle_l_beta	ankle_angle_l	subtalar_angle_l	mtp_angle_l	lumbar_extension	lumbar_bending	lumbar_rotation	arm_flex_r	arm_add_r	arm_rot_r	elbow_flex_r	pro_sup_r	wrist_flex_r	wrist_dev_r	arm_flex_l	arm_add_l	arm_rot_l	elbow_flex_l	pro_sup_l	wrist_flex_l	wrist_dev_l
     12.18300000	      5.00257090	      7.45672689	     -4.07755108	      0.07194085	      1.32628529	      0.01320037	     35.52222621	    -17.13003343	     -8.57431965	     84.67350134	      1.47783139	     -0.00811035	    -13.84968511	      0.00000000	     45.08615087	     -5.87204108	     -7.77563863	     69.60337973	      1.21480815	      9.83119516	     -9.05030128	      0.00000000	    -62.00618264	      1.31432493	     -4.19036138	     48.36996150	      4.39954084	    -17.48306363	     48.58196217	     51.22151739	      0.00000000	      0.00000000	     52.70832815	     18.94955339	    -10.73554092	     34.21166494	      8.02989098	      0.00000000	      0.00000000
     12.20000000	      5.02876951	      6.62970114	     -5.26636172	      0.07156992	      1.32643685	      0.01390157	     38.96969654	    -16.33215342	     -6.96413513	     90.04466443	      1.57157587	      0.20562294	    -12.88088279	      0.00000000	     41.46625229	     -6.77063747	     -8.87985636	     64.10222632	      1.11879491	      6.61381020	     -8.91371964	      0.00000000	    -62.01277414	      1.12981412	     -3.15132704	     48.62386783	      4.53562687	    -16.96295384	     48.39283027	     51.38667151	      0.00000000	      0.00000000	     52.43342326	     18.67525449	    -11.08625320	     34.66054719	      7.67761554	      0.00000000	      0.00000000
     12.21700000	      4.77161909	      5.64806144	     -6.09068243	      0.07127723	      1.32621585	      0.01410045	     42.49389422	    -15.60456825	     -6.08947197	     94.76873169	      1.65402640	      1.19586959	    -12.43096413	      0.00000000	     38.03023058	     -7.62563356	     -9.81499727	     59.05839961	      1.03076352	      3.40370831	     -8.28303554	      0.00000000	    -61.86088744	      1.24755197	     -2.02389474	     48.80321712	      4.71097236	    -16.59802465	     48.30342518	     51.51843485	      0.00000000	      0.00000000	     52.21852634	     18.54014265	    -11.50884829	     34.99089315	      7.63544651	      0.00000000	      0.00000000
     12.23300000	      4.31705916	      4.70925785	     -6.81207041	      0.07094554	      1.32563311	      0.01411007	     46.27758059	    -14.93414443	     -5.35868191	     98.94245615	      1.72687163	      2.68295001	    -12.17828232	      0.00000000	     34.66947320	     -8.37291706	    -10.86309413	     54.32816795	      0.94820541	      0.28146772	     -7.57562101	      0.00000000	    -61.57005781	      1.40757109	     -0.90406842	     48.92670353	      4.92380081	    -16.35390353	     48.21815664	     51.65416053	      0.00000000	      0.00000000	     52.03117179	     18.41717445	    -11.92802201	     35.28778993	      7.58108889	      0.00000000	      0.00000000
     12.25000000	      3.90748379	      4.25714276	     -7.85128814	      0.07070798	      1.32475568	      0.01457706	     50.10894378	    -14.28444040	     -4.01140733	    102.09510656	      1.78189576	      4.23172723	    -11.63607431	      0.00000000	     31.45032080	     -8.86245603	    -12.55503022	     50.43305092	      0.88022279	     -2.13698832	     -7.10702342	      0.00000000	    -61.25034829	      0.99727062	     -0.04756090	     49.04210335	      5.13731516	    -16.24195005	     48.09343399	     51.93137017	      0.00000000	      0.00000000	     51.87491674	     18.29604635	    -12.21975969	     35.49070263	      7.32354613	      0.00000000	      0.00000000
